<?xml version="1.0" encoding="utf-8"?>
<!-- Generator: Adobe Illustrator 25.0.1, SVG Export Plug-In . SVG Version: 6.00 Build 0)  -->
<svg version="1.1" id="Layer_1" xmlns="http://www.w3.org/2000/svg" xmlns:xlink="http://www.w3.org/1999/xlink" x="0px" y="0px"
	 viewBox="0 0 355 261.7" style="enable-background:new 0 0 355 261.7;" xml:space="preserve">
<style type="text/css">
	.st0{fill:#FFFFFF;stroke:#000000;stroke-width:0.75;stroke-miterlimit:10;}
	.st1{fill:none;}
	.st2{font-family:'ApercuPro-Bold';}
	.st3{font-size:28px;}
</style>
<g>
	<path class="st0" d="M70.3,118c20,3.7,43.2-1,38.7-29.4c-4.5-28.3,8.9-59.6,27.9-43.9s21.8,43.9,35.7,36.8s10-24.6,22.3-23.4
		c12.3,1.1,19,33.5,39.1,30.1c20.1-3.4,19.8-19.3,30.9-19.6c14.5-0.4,5,21.5,12.7,27.1c7.7,5.6,37.9-7.8,40.1,12.5
		c2.2,20.2-39.1,11.3-36.8,35.8c2.2,24.6-38-1.1-41.3,16.7s22.3,14.5,20.1,26.8c-2.2,12.3-15.4,10.7-52.5,0s-49.1-2.8-44.7,8.6
		c4.5,11.5,3.3,23.7-7.8,24.9c-11.2,1.1-26.3-2.7-39.1-43.7c-4.9-13.4-16.9-17.5-33.1-20C12.6,146.6,36,111.7,70.3,118z"/>
	<g>
		<rect x="102.9" y="117.5" class="st1" width="167.2" height="20.9"/>
		<text transform="matrix(1 0 0 1 120.4609 137.2971)" class="st2 st3">Helen Kim</text>
	</g>
</g>
</svg>
