<?xml version="1.0" encoding="utf-8"?>
<!-- Generator: Adobe Illustrator 25.0.1, SVG Export Plug-In . SVG Version: 6.00 Build 0)  -->
<svg version="1.1" id="Layer_1" xmlns="http://www.w3.org/2000/svg" xmlns:xlink="http://www.w3.org/1999/xlink" x="0px" y="0px"
	 viewBox="0 0 355 261.7" style="enable-background:new 0 0 355 261.7;" xml:space="preserve">
<style type="text/css">
	.st0{fill:#FFFFFF;stroke:#000000;stroke-width:0.75;stroke-miterlimit:10;}
	.st1{fill:none;}
	.st2{font-family:'ApercuPro-Bold';}
	.st3{font-size:28px;}
</style>
<polygon class="st0" points="85.7,96.3 81,54.1 123.5,77.7 142.4,9.5 156.9,69.4 177,15.1 184.6,69.4 248.5,9.5 237.5,75.5 
	297.1,43 283.5,96.3 333.3,96.3 297.1,120.9 347.8,159.1 260,159.1 279.7,189.2 230.6,165.8 229.5,211.5 199.4,169.1 186,237.2 
	163.6,172.3 110.1,255.1 114.5,159.1 72.1,203.7 87.7,144.5 12.9,172.3 74.4,131.3 20.8,96.5 "/>
<g>
	<g>
		<rect x="101" y="110.4" class="st1" width="167.2" height="20.9"/>
		<text transform="matrix(1 0 0 1 118.6094 130.2369)" class="st2 st3">Helen Kim</text>
	</g>
</g>
</svg>
