<svg xmlns="http://www.w3.org/2000/svg" enable-background="new 0 0 50.6 41.1" viewBox="0 0 50.6 41.1">
    <path d="M25.3 29.4h-7.6c-.6 0-1.1-.5-1.2-1V28 13.1c0-.7.4-1.1 1-1.3H32.9c.5 0 1.1.4 1.2.9v15.5c0 .6-.6 1.2-1.2 1.2-2.6-.1-5.1 0-7.6 0zm6.2-2.6v-.1-5.1c0-.5-.1-1-.2-1.4-.3-.9-.8-1.5-1.7-1.8-.6-.2-1.2-.2-1.8-.1-.8.1-1.4.5-1.8 1.2l-.1.1v-1.1h-2.5v8.4H26v-.2-4.1c0-.3 0-.5.1-.8.1-.4.2-.8.6-1 .3-.2.6-.2 1-.2.6 0 1 .3 1.1.8.1.3.1.6.1.9v4.5h2.6zm-12.4-8.4v8.4h2.6v-8.4h-2.6zm-.2-2.7c0 .9.7 1.5 1.4 1.5.9.1 1.6-.6 1.6-1.4 0-.9-.6-1.6-1.4-1.6-.9-.1-1.6.6-1.6 1.5z"/>
</svg>
